<svg width="375" height="300" viewBox="0 0 375 300" fill="none" xmlns="http://www.w3.org/2000/svg">
<g clip-path="url(#clip0_521_1699)">
<path d="M15 194.238C15 194.561 15.2608 194.82 15.5855 194.82H374.414C374.739 194.82 375 194.561 375 194.238C375 193.916 374.739 193.657 374.414 193.657H15.5855C15.2608 193.657 15 193.916 15 194.238Z" fill="#3F3D56"/>
<path d="M244.768 70.868L246.651 94.7826L273.937 83.4662L258.545 59.1429L244.768 70.868Z" fill="#A0616A"/>
<path d="M243.951 78.1537C255.184 78.1537 264.29 69.1118 264.29 57.9581C264.29 46.8043 255.184 37.7625 243.951 37.7625C232.717 37.7625 223.611 46.8043 223.611 57.9581C223.611 69.1118 232.717 78.1537 243.951 78.1537Z" fill="#A0616A"/>
<path d="M205.898 246.255L209.342 276.929L185.233 273.613L193.106 245.277L205.898 246.255Z" fill="#A0616A"/>
<path d="M299.875 250.651L303.319 281.326L279.21 278.01L287.082 249.674L299.875 250.651Z" fill="#A0616A"/>
<path d="M242.554 158.073C242.225 158.073 215.913 159.385 198.529 160.253C190.301 160.664 184.038 167.735 184.676 175.891L190.891 255.293L208.604 255.781L209.036 191.782L244.03 193.736L242.554 158.073Z" fill="#2F2E41"/>
<path d="M319.802 157.584C319.802 157.584 324.23 191.294 320.786 194.713C317.342 198.133 209.342 192.026 209.342 192.026C209.342 192.026 233.035 158.055 237.302 157.087C241.57 156.119 309.469 152.699 309.469 152.699L319.802 157.584V157.584Z" fill="#2F2E41"/>
<path d="M179.891 115.143C175.778 109.432 175.412 102.695 179.073 100.097C182.734 97.4984 189.035 100.022 193.149 105.736C194.823 107.997 195.929 110.622 196.372 113.393L213.49 137.811L203.748 144.508L186.146 120.651C183.648 119.337 181.503 117.449 179.891 115.143V115.143Z" fill="#A0616A"/>
<path d="M243.784 86.0128L268.877 75.7534L316.112 148.058C316.112 148.058 283.146 155.386 271.829 156.851C260.513 158.317 247.72 152.455 247.72 152.455L243.784 86.0128V86.0128Z" fill="#5D8BFF"/>
<path d="M274.29 98.2263L265.187 70.0332L276.996 78.9289C276.996 78.9289 310.453 100.913 310.453 110.196C310.453 119.478 320.786 147.813 320.786 147.813C320.786 147.813 332.349 157.34 328.412 166.134C324.476 174.927 333.579 173.706 334.563 180.057C335.547 186.408 320.54 194.958 320.54 194.958C320.54 194.958 316.85 159.05 305.041 159.05C293.233 159.05 274.29 98.2263 274.29 98.2263Z" fill="#3F3D56"/>
<path d="M245.547 85.2919L233.206 90.1654C233.206 90.1654 235.174 124.363 237.142 127.295C239.11 130.226 245.998 145.859 245.998 145.859V150.954C245.998 150.954 232.222 155.141 232.714 157.584C233.206 160.027 265.187 166.866 265.187 166.866C265.187 166.866 258.791 147.325 254.855 140.974C250.918 134.623 245.547 85.2919 245.547 85.2919V85.2919Z" fill="#3F3D56"/>
<path d="M237.634 90.1654C237.634 90.1654 223.365 88.2112 220.905 104.822C218.445 121.432 220.008 123.631 220.008 123.631L215.985 133.157L202.7 118.501L189.907 126.806C189.907 126.806 213.033 163.935 222.381 162.958C231.729 161.981 245.506 135.111 245.506 135.111L237.634 90.1654V90.1654Z" fill="#3F3D56"/>
<path d="M308.898 162.977L301.597 265.552L282.654 264.819C282.654 264.819 278.472 167.844 278.472 166.378C278.472 164.912 280.44 156.607 292.741 156.119C305.041 155.63 308.898 162.977 308.898 162.977Z" fill="#2F2E41"/>
<path d="M281.424 267.506C281.424 267.506 291.264 264.575 292.741 266.529C294.217 268.483 302.581 269.46 302.581 269.46L305.041 293.399C305.041 293.399 298.153 298.284 297.169 299.261C296.185 300.238 270.107 301.216 269.615 295.353C269.123 289.491 276.504 282.162 276.504 282.162L281.424 267.506V267.506Z" fill="#2F2E41"/>
<path d="M209.096 260.667C209.096 260.667 212.048 258.224 213.033 265.063C214.017 271.903 217.461 283.14 212.54 284.605C207.62 286.071 158.418 286.559 158.418 282.162V277.766L162.846 274.346L171.704 272.944C171.704 272.944 188.923 257.247 190.891 257.247C192.859 257.247 199.256 263.598 199.256 263.598L209.096 260.667V260.667Z" fill="#2F2E41"/>
<path d="M263.957 68.9138C263.957 68.9138 254.117 57.1888 250.18 58.1659C246.244 59.1429 248.704 60.6086 248.704 60.6086L238.864 49.8606C238.864 49.8606 230.991 46.9294 223.611 56.2117C223.611 56.2117 219.183 48.395 223.611 43.9981C228.039 39.6013 229.515 40.0898 230.499 37.6471C231.483 35.2044 238.372 33.2502 238.372 33.2502C238.372 33.2502 237.977 29.7343 240.142 31.4922C242.308 33.2502 247.716 33.2502 247.716 33.2502C247.716 33.2502 247.747 31.296 249.948 33.2502C252.148 35.2044 254.609 34.2273 254.609 34.2273C254.609 34.2273 254.609 37.6086 256.331 37.6279C258.053 37.6471 261.005 35.2044 261.497 37.1586C261.989 39.1127 265.433 40.0898 265.925 45.9523C266.417 51.8148 263.957 68.9138 263.957 68.9138V68.9138Z" fill="#2F2E41"/>
<path d="M239.491 217.53H171.201C168.845 217.53 166.927 215.626 166.927 213.286V185.621C166.927 183.281 168.845 181.377 171.201 181.377H239.491C241.848 181.377 243.765 183.281 243.765 185.621V213.286C243.765 215.626 241.848 217.53 239.491 217.53Z" fill="white"/>
<path d="M243.639 185.621V213.286C243.639 215.562 241.784 217.405 239.491 217.405H205.976C201.118 211.678 198.19 204.285 198.19 196.212C198.19 190.924 199.445 185.93 201.678 181.502H239.491C241.784 181.502 243.639 183.345 243.639 185.621L243.639 185.621Z" fill="#E6E6E6"/>
<path d="M239.491 218.018H171.201C168.573 218.018 166.435 215.896 166.435 213.286V185.621C166.435 183.012 168.573 180.889 171.201 180.889H239.491C242.119 180.889 244.257 183.012 244.257 185.621V213.286C244.257 215.896 242.119 218.018 239.491 218.018V218.018ZM171.201 181.866C169.116 181.866 167.419 183.55 167.419 185.621V213.286C167.419 215.357 169.116 217.041 171.201 217.041H239.491C241.576 217.041 243.273 215.357 243.273 213.286V185.621C243.273 183.55 241.576 181.866 239.491 181.866H171.201Z" fill="#3F3D56"/>
<path d="M175.339 208.055C173.609 208.055 172.201 209.453 172.201 211.172C172.201 212.89 173.609 214.288 175.339 214.288H182.37C184.101 214.288 185.509 212.89 185.509 211.172C185.509 209.453 184.101 208.055 182.37 208.055H175.339Z" fill="#5D8BFF"/>
<path d="M196.739 184.12C194.008 184.12 191.787 186.326 191.787 189.037C191.787 191.749 194.008 193.954 196.739 193.954H207.676C210.407 193.954 212.628 191.749 212.628 189.037C212.628 186.326 210.407 184.12 207.676 184.12H196.739Z" fill="#5D8BFF"/>
<path d="M244.123 192.716C237.851 195.958 231.082 195.374 229.005 191.41C226.927 187.446 230.327 181.606 236.602 178.363C239.09 177.033 241.863 176.315 244.689 176.267L271.438 162.861L276.75 173.378L250.492 187.338C248.832 189.61 246.648 191.454 244.123 192.716V192.716Z" fill="#A0616A"/>
<path d="M274.536 78.4404C274.536 78.4404 302.089 76.9747 307.993 91.631C313.898 106.287 318.818 154.164 318.818 154.164L258.791 186.591L248.458 170.775L288.804 139.508L274.536 78.4404V78.4404Z" fill="#3F3D56"/>
</g>
<path d="M71.4617 119.142C70.4127 119.143 69.407 119.562 68.6652 120.306C67.9234 121.05 67.5062 122.059 67.505 123.112V132.399C67.5062 133.452 67.9234 134.461 68.6652 135.205C69.407 135.95 70.4127 136.368 71.4617 136.369H76.4805C77.5295 136.368 78.5352 135.95 79.277 135.205C80.0188 134.461 80.436 133.452 80.4372 132.399V123.112C80.436 122.059 80.0188 121.05 79.277 120.306C78.5352 119.562 77.5295 119.143 76.4805 119.142H71.4617Z" fill="#3F3D56"/>
<path d="M164.235 136.678H159.216C158.085 136.677 157.001 136.226 156.202 135.424C155.402 134.622 154.953 133.534 154.951 132.399V123.112C154.953 121.977 155.402 120.89 156.202 120.087C157.001 119.285 158.085 118.834 159.216 118.833H164.235C165.365 118.834 166.449 119.285 167.249 120.087C168.048 120.89 168.498 121.977 168.499 123.112V132.399C168.498 133.534 168.048 134.622 167.249 135.424C166.449 136.226 165.365 136.677 164.235 136.678V136.678Z" fill="#3F3D56"/>
<path d="M160.905 129.242H74.4838C70.5507 129.242 67.351 126.916 67.351 124.056V107.383L71.6405 102.85H164.582L168.037 107.392V124.056C168.037 126.916 164.838 129.242 160.905 129.242Z" fill="#CCCCCC"/>
<path d="M164.179 111.191H72.1332L71.1979 96.8007L71.7931 95.3281L75.253 86.7855H160.436L165.115 96.4862L164.179 111.191Z" fill="#CCCCCC"/>
<path d="M164.958 96.5172L164.272 107.33H144.02V99.2974L164.382 95.3246L164.958 96.5172Z" fill="white"/>
<path d="M91.984 99.2973V107.33H72.0374L71.3538 96.8258L71.9359 95.3864L91.984 99.2973Z" fill="white"/>
<path d="M159.923 89.2571H75.7655L84.7415 59.2377C85.1076 57.9978 85.8615 56.9091 86.8918 56.1323C87.9221 55.3555 89.1742 54.9319 90.4629 54.924L146.197 54.3914C147.544 54.3783 148.856 54.8177 149.925 55.6397C150.994 56.4617 151.758 57.6189 152.096 58.9271L159.923 89.2571Z" fill="#CCCCCC"/>
<path d="M153.444 86.4185L82.2305 85.5713C82.1404 85.5702 82.0519 85.548 81.972 85.5063C81.8921 85.4647 81.8231 85.4048 81.7704 85.3315C81.7178 85.2582 81.683 85.1735 81.669 85.0843C81.6549 84.9951 81.6618 84.9038 81.6893 84.8178L88.5163 63.4468C88.5535 63.3303 88.6266 63.2287 88.7251 63.1566C88.8236 63.0845 88.9424 63.0457 89.0643 63.0457H146.343C146.465 63.0457 146.584 63.0845 146.682 63.1565C146.781 63.2286 146.854 63.3301 146.891 63.4466L153.999 85.6648C154.027 85.7519 154.034 85.8445 154.019 85.9348C154.004 86.0251 153.968 86.1106 153.914 86.1842C153.86 86.2578 153.789 86.3174 153.707 86.3582C153.626 86.3989 153.536 86.4196 153.444 86.4185V86.4185Z" fill="white"/>
<path d="M127.442 58.0547H108.247C108.085 58.0547 107.938 57.895 107.864 57.6376C107.79 57.3742 107.8 57.0939 107.895 56.8369L109.477 52.8208C109.558 52.6161 109.69 52.4939 109.83 52.4939H125.859C125.999 52.4939 126.13 52.6161 126.211 52.8208L127.794 56.8369C127.888 57.0939 127.899 57.3742 127.824 57.6376C127.75 57.895 127.603 58.0547 127.442 58.0547Z" fill="#5D8BFF"/>
<path d="M75.8185 88.6391H63.1942V85.8551C63.1952 84.9551 63.552 84.0922 64.1863 83.4558C64.8206 82.8194 65.6806 82.4615 66.5776 82.4604H75.8185V88.6391Z" fill="#CCCCCC"/>
<path d="M172.502 88.6391H159.878V82.4604H169.119C170.016 82.4615 170.876 82.8194 171.51 83.4558C172.144 84.0922 172.501 84.9551 172.502 85.8551V88.6391Z" fill="#CCCCCC"/>
<path d="M136.841 19.2611C136.841 24.3694 134.813 29.2686 131.205 32.8808C127.596 36.4929 122.701 38.5222 117.598 38.5222C112.494 38.5222 107.599 36.4929 103.991 32.8808C100.382 29.2686 98.3544 24.3694 98.3544 19.2611C98.3544 18.6506 98.3837 18.0499 98.4391 17.4558C98.9028 12.5256 101.246 7.96369 104.981 4.71715C108.717 1.47061 113.559 -0.211096 118.5 0.0212283C123.442 0.253553 128.105 2.38206 131.52 5.96478C134.935 9.5475 136.841 14.3092 136.841 19.2611Z" fill="#5D8BFF"/>
<path d="M123.328 20.5408C122.862 19.9269 122.248 19.4407 121.544 19.1272C120.676 18.7609 119.779 18.4661 118.863 18.2458V13.0028C120.271 13.2153 121.592 13.8181 122.676 14.7428L123.739 12.4739C123.128 11.9286 122.426 11.4944 121.665 11.191C120.821 10.8492 119.936 10.6219 119.033 10.5152V7.85779H116.57V10.5413C115.619 10.6482 114.702 10.9565 113.879 11.4456C113.136 11.8858 112.511 12.4997 112.056 13.2346C111.622 13.9518 111.398 14.7761 111.407 15.6145C111.365 16.523 111.628 17.4195 112.154 18.1609C112.638 18.8028 113.278 19.3106 114.013 19.6365C114.895 20.0135 115.807 20.316 116.74 20.5408V25.565C115.078 25.4395 113.495 24.8072 112.203 23.7531L111.14 26.0253C111.862 26.6229 112.683 27.0892 113.566 27.403C114.534 27.7496 115.545 27.9605 116.57 28.0298V30.6643H119.033V27.9808C120.4 27.8312 121.683 27.2425 122.689 26.3028C123.132 25.8776 123.482 25.365 123.716 24.7974C123.951 24.2298 124.065 23.6197 124.052 23.0055C124.093 22.126 123.838 21.2581 123.328 20.5408V20.5408ZM116.74 17.6908C116.14 17.5087 115.582 17.2091 115.099 16.8093C114.908 16.6389 114.756 16.4281 114.656 16.1922C114.556 15.9562 114.509 15.701 114.519 15.4447C114.501 14.8633 114.714 14.2985 115.112 13.8745C115.553 13.4296 116.122 13.1339 116.74 13.0289V17.6908ZM120.409 24.6378C119.993 25.065 119.451 25.3475 118.863 25.4442V21.1219C119.425 21.2728 119.951 21.536 120.409 21.8956C120.583 22.044 120.721 22.2297 120.813 22.4388C120.905 22.6479 120.948 22.8751 120.941 23.1035C120.963 23.6638 120.773 24.2119 120.409 24.6378V24.6378Z" fill="white"/>
<defs>
<clipPath id="clip0_521_1699">
<rect width="360" height="269" fill="white" transform="translate(15 31)"/>
</clipPath>
</defs>
</svg>
