<svg width="152" height="76" viewBox="0 0 152 76" fill="none" xmlns="http://www.w3.org/2000/svg">
<g clip-path="url(#clip0_524_1742)">
<path d="M30.5118 53.8975C30.0639 53.898 29.6345 54.0874 29.3177 54.4241C29.001 54.7608 28.8229 55.2173 28.8224 55.6934V59.895C28.8229 60.3712 29.001 60.8277 29.3177 61.1644C29.6345 61.501 30.0639 61.6904 30.5118 61.691H32.6546C33.1025 61.6904 33.5319 61.501 33.8486 61.1644C34.1654 60.8277 34.3435 60.3712 34.344 59.895V55.6934C34.3435 55.2173 34.1654 54.7608 33.8486 54.4241C33.5319 54.0874 33.1025 53.898 32.6546 53.8975H30.5118Z" fill="#3F3D56"/>
<path d="M70.1226 61.8308H67.9798C67.497 61.8302 67.0342 61.6261 66.6928 61.2632C66.3515 60.9003 66.1595 60.4083 66.1589 59.8951V55.6935C66.1595 55.1803 66.3515 54.6883 66.6928 54.3254C67.0342 53.9625 67.497 53.7584 67.9798 53.7578H70.1226C70.6054 53.7584 71.0682 53.9625 71.4096 54.3254C71.7509 54.6883 71.9429 55.1803 71.9435 55.6935V59.8951C71.9429 60.4083 71.7509 60.9003 71.4096 61.2632C71.0682 61.6261 70.6054 61.8302 70.1226 61.8308V61.8308Z" fill="#3F3D56"/>
<path d="M68.7008 58.4665H31.8021C30.1228 58.4665 28.7566 57.4141 28.7566 56.1206V48.5778L30.5881 46.5273H70.2711L71.7463 48.5821V56.1206C71.7463 57.4141 70.3801 58.4665 68.7008 58.4665Z" fill="#CCCCCC"/>
<path d="M70.099 50.301H30.7985L30.3992 43.7909L30.6533 43.1248L32.1306 39.2603H68.5009L70.4984 43.6486L70.099 50.301Z" fill="#CCCCCC"/>
<path d="M70.4316 43.6625L70.1384 48.5539H61.4918V44.9203L70.1857 43.123L70.4316 43.6625Z" fill="white"/>
<path d="M39.274 44.9201V48.5538H30.7575L30.4656 43.8021L30.7141 43.1509L39.274 44.9201Z" fill="white"/>
<path d="M68.2817 40.3782H32.3494L36.1818 26.798C36.3381 26.2371 36.66 25.7446 37.0999 25.3932C37.5398 25.0417 38.0744 24.8501 38.6247 24.8466L62.4214 24.6056C62.9964 24.5997 63.5567 24.7985 64.0131 25.1703C64.4695 25.5422 64.7957 26.0657 64.9397 26.6574L68.2817 40.3782Z" fill="#CCCCCC"/>
<path d="M65.5155 39.094L35.1096 38.7107C35.0712 38.7102 35.0334 38.7001 34.9992 38.6813C34.9651 38.6624 34.9357 38.6354 34.9132 38.6022C34.8907 38.569 34.8759 38.5307 34.8698 38.4904C34.8638 38.45 34.8668 38.4087 34.8785 38.3698L37.7934 28.702C37.8093 28.6493 37.8405 28.6033 37.8826 28.5707C37.9246 28.5381 37.9753 28.5205 38.0274 28.5205H62.4835C62.5355 28.5205 62.5862 28.5381 62.6283 28.5707C62.6703 28.6033 62.7015 28.6492 62.7174 28.7019L65.7524 38.753C65.7643 38.7924 65.7672 38.8343 65.7609 38.8751C65.7546 38.916 65.7392 38.9546 65.7161 38.9879C65.6929 39.0212 65.6627 39.0482 65.6278 39.0667C65.5929 39.0851 65.5545 39.0944 65.5155 39.094V39.094Z" fill="white"/>
<path d="M54.4133 26.2629H46.2177C46.1487 26.2629 46.086 26.1907 46.0543 26.0742C46.0226 25.9551 46.0272 25.8283 46.0673 25.712L46.7432 23.8952C46.7776 23.8026 46.8338 23.7473 46.8936 23.7473H53.7374C53.7972 23.7473 53.8534 23.8026 53.8879 23.8952L54.5637 25.712C54.6039 25.8283 54.6084 25.9551 54.5767 26.0742C54.545 26.1907 54.4823 26.2629 54.4133 26.2629Z" fill="#5D8BFF"/>
<path d="M32.372 40.0986H26.9818V38.8391C26.9822 38.432 27.1346 38.0417 27.4054 37.7538C27.6762 37.4659 28.0434 37.3039 28.4264 37.3035H32.372V40.0986Z" fill="#CCCCCC"/>
<path d="M73.6526 40.0986H68.2625V37.3035H72.208C72.591 37.3039 72.9582 37.4659 73.229 37.7538C73.4998 38.0417 73.6522 38.432 73.6526 38.8391V40.0986Z" fill="#CCCCCC"/>
<path d="M26.3512 59.7317L0.00012207 69.7947L0.111984 70.1257L26.463 60.0627L26.3512 59.7317Z" fill="#3F3D56"/>
<path d="M74.1171 59.7325L74.0052 60.0635L100.357 70.1239L100.469 69.7929L74.1171 59.7325Z" fill="#3F3D56"/>
<path d="M51.7814 67.029H50.2041V64.8633H51.7814V67.029ZM51.7814 62.6974H50.2041V60.5317H51.7814V62.6974Z" fill="#E6E6E6"/>
<path d="M51.7814 75.9999H50.2041V73.8342H51.7814V75.9999ZM51.7814 71.6684H50.2041V69.5027H51.7814V71.6684Z" fill="#E6E6E6"/>
<path d="M121.086 68.5189H119.349L118.522 61.396H121.086V68.5189Z" fill="#FFB8B8"/>
<path d="M121.529 70.309H115.927V70.2337C115.928 69.6192 116.158 69.0301 116.567 68.5956C116.976 68.1611 117.53 67.9167 118.108 67.916H121.529L121.529 70.309Z" fill="#2F2E41"/>
<path d="M143.487 65.0195L141.998 65.9706L137.839 60.3175L140.036 58.9138L143.487 65.0195Z" fill="#FFB8B8"/>
<path d="M139.933 69.3781L139.897 69.3136C139.599 68.7865 139.511 68.1556 139.651 67.5594C139.791 66.9632 140.147 66.4503 140.642 66.1332L143.575 64.2603L144.734 66.3115L139.933 69.3781Z" fill="#2F2E41"/>
<path d="M121.537 67.0489L121.507 67.0488C120.662 67.0459 119.818 66.9943 118.978 66.894C118.658 66.8604 118.311 66.8239 117.893 66.7875L117.878 66.7846C117.593 66.6944 117.585 63.8487 117.706 54.1079C117.768 49.1187 117.838 43.464 117.755 39.8627L117.754 39.8274L117.779 39.804C120.878 36.9388 124.857 35.8648 128.985 36.7798L129.015 36.7866L129.031 36.8152C130.738 39.8861 133.316 44.3096 135.809 48.5875C141.532 58.4075 143.169 61.2956 142.989 61.5135L142.968 61.5313C142.577 61.739 142.283 61.8989 142.034 62.0349C141.199 62.4901 140.853 62.6786 138.995 63.4918L138.95 63.5118L138.916 63.4729C133.109 56.7089 128.277 49.1532 125.288 42.1685C124.939 44.553 124.515 47.6668 124.067 50.9567C122.779 60.4173 121.909 66.6469 121.558 67.0262L121.537 67.0489Z" fill="#2F2E41"/>
<path d="M130.556 9.65772C131.141 7.09092 131.636 4.19584 130.534 1.83178C129.768 0.191484 126.937 -0.360896 125.315 0.230038C123.692 0.820973 122.519 2.42422 122.003 4.17227C121.487 5.92032 121.547 7.80397 121.772 9.62119C124.756 9.56024 127.74 9.49929 130.556 9.65772Z" fill="#2F2E41"/>
<path d="M125.52 9.65708C127.442 9.65708 129 8.0007 129 5.95745C129 3.91419 127.442 2.25781 125.52 2.25781C123.598 2.25781 122.04 3.91419 122.04 5.95745C122.04 8.0007 123.598 9.65708 125.52 9.65708Z" fill="#FFB8B8"/>
<path d="M129.774 5.19529C129.785 4.57262 129.679 3.95395 129.46 3.37603C129.242 2.7981 128.917 2.27272 128.504 1.8311C128.091 1.38948 127.598 1.04063 127.056 0.805285C126.513 0.569936 125.932 0.452888 125.346 0.461097C124.76 0.469306 124.182 0.602606 123.646 0.853073C123.109 1.10354 122.626 1.46606 122.224 1.91911C121.822 2.37215 121.51 2.90646 121.306 3.4903C121.102 4.07414 121.011 4.69559 121.037 5.31773C124.016 5.32445 126.995 5.33118 129.774 5.19529Z" fill="#2F2E41"/>
<path d="M123.102 40.5905C126.564 40.5741 130.004 41.1862 133.272 42.4006C133.386 36.5688 131.498 30.7263 128.083 26.3554L128.057 26.3227L128.07 26.2827C128.982 23.4809 129.925 20.585 130.768 17.7034L130.755 17.655C130.164 15.4221 128.896 13.1657 126.878 10.7568C126.659 10.5157 126.362 10.3722 126.047 10.3552C125.732 10.3383 125.423 10.4492 125.183 10.6655C121.596 14.1609 119.646 19.3981 120.093 24.3334L120.094 24.3479L120.09 24.362C118.51 30.0526 117.937 32.9755 117.431 35.5543C117.061 37.4355 116.742 39.0644 116.1 41.3918C118.4 40.8597 120.748 40.5911 123.102 40.5905V40.5905Z" fill="#3F3D56"/>
<path opacity="0.1" d="M128.2 22.6013L123.059 34.4976L120.123 31.3378L128.2 22.6013Z" fill="black"/>
<path d="M116.662 29.2091L117.02 29.9493C117.024 29.9562 117.024 29.9641 117.022 29.9715C117.02 29.9788 117.015 29.9849 117.009 29.9884L116.991 29.9979L118.858 33.8542C118.91 33.961 118.92 34.0851 118.885 34.1994C118.851 34.3137 118.775 34.4088 118.675 34.4637L116.408 35.7038C116.358 35.731 116.304 35.7475 116.248 35.7524C116.192 35.7573 116.136 35.7505 116.083 35.7324C116.03 35.7142 115.981 35.6851 115.938 35.6467C115.895 35.6083 115.86 35.5613 115.835 35.5085L115.835 35.5085L114.033 31.7874L114.021 31.7942C114.016 31.7967 114.011 31.7972 114.006 31.7956C114.001 31.7939 113.997 31.7903 113.995 31.7855L113.791 31.3642C113.789 31.3618 113.789 31.3591 113.789 31.3565C113.788 31.3538 113.789 31.3511 113.789 31.3485C113.79 31.3459 113.791 31.3435 113.793 31.3415C113.795 31.3394 113.797 31.3377 113.799 31.3365V31.3365L113.811 31.3297L113.735 31.171L113.722 31.1779C113.717 31.1805 113.712 31.1809 113.707 31.1792C113.702 31.1774 113.697 31.1736 113.695 31.1685L113.494 30.753C113.491 30.7479 113.491 30.742 113.492 30.7366C113.494 30.7312 113.498 30.7267 113.502 30.7241L113.515 30.7172L113.41 30.5006L113.397 30.5076C113.393 30.5099 113.388 30.5103 113.384 30.5088C113.379 30.5073 113.375 30.5039 113.373 30.4994L113.373 30.4994L113.263 30.2726C113.261 30.2681 113.261 30.2629 113.262 30.2581C113.264 30.2532 113.267 30.2492 113.271 30.2469L113.284 30.2399L113.062 29.7807C113.01 29.674 113 29.5499 113.035 29.4356C113.069 29.3214 113.145 29.2263 113.245 29.1714L115.512 27.9313C115.612 27.8764 115.729 27.8661 115.837 27.9027C115.944 27.9393 116.034 28.0198 116.085 28.1264L116.608 29.206L116.625 29.1965C116.632 29.193 116.639 29.1924 116.646 29.1947C116.653 29.1971 116.659 29.2022 116.662 29.2091V29.2091Z" fill="#3F3D56"/>
<path d="M115.942 28.3052L118.693 33.9868C118.726 34.0545 118.732 34.1332 118.71 34.2057C118.688 34.2782 118.64 34.3385 118.577 34.3733L116.407 35.5604C116.343 35.5953 116.269 35.602 116.201 35.5789C116.133 35.5558 116.076 35.5049 116.043 35.4374L116.043 35.4366L113.292 29.7551C113.276 29.7215 113.266 29.6849 113.263 29.6474C113.26 29.6098 113.265 29.572 113.275 29.5361C113.286 29.5002 113.304 29.4669 113.326 29.4381C113.349 29.4093 113.377 29.3856 113.409 29.3684L113.409 29.3684L113.734 29.1907L113.755 29.235C113.768 29.2626 113.787 29.2871 113.809 29.3072C113.831 29.3273 113.857 29.3425 113.885 29.352C113.913 29.3614 113.942 29.365 113.971 29.3624C114 29.3599 114.029 29.3512 114.055 29.337L115.158 28.7333C115.211 28.7046 115.25 28.6549 115.268 28.5952C115.286 28.5355 115.281 28.4707 115.254 28.4149L115.233 28.3706L115.579 28.1813C115.642 28.1464 115.716 28.1399 115.785 28.1631C115.853 28.1863 115.91 28.2373 115.942 28.305L115.942 28.3052Z" fill="#5D8BFF"/>
<path d="M116.74 35.2463C116.947 35.2309 117.15 35.1673 117.332 35.0599C117.514 34.9525 117.672 34.804 117.794 34.6248C117.916 34.4455 118 34.24 118.04 34.0225C118.079 33.8051 118.073 33.5811 118.023 33.3664L122.258 30.4165L119.843 29.3071L116.191 32.2785C115.857 32.393 115.575 32.6337 115.397 32.9549C115.219 33.2762 115.158 33.6557 115.225 34.0215C115.293 34.3873 115.484 34.7141 115.764 34.9398C116.043 35.1655 116.39 35.2746 116.74 35.2463V35.2463Z" fill="#FFB8B8"/>
<path d="M120.815 33.1213L120.762 33.0811C119.754 32.2925 118.635 31.4769 117.552 30.6881L117.487 30.6408L117.539 30.5771C119.848 27.7042 122.161 24.7034 124.397 21.8006C124.396 21.7959 124.394 21.7926 124.393 21.7901L124.414 21.7787L124.423 21.7672L124.428 21.7714L124.441 21.7641L124.38 21.7691L123.691 16.0222C123.068 15.1192 122.949 13.3264 123.765 12.075C124.61 10.7786 126.398 10.3447 127.592 11.1461C127.905 11.3693 128.166 11.6643 128.357 12.0093C128.548 12.3544 128.663 12.7407 128.695 13.1396C128.739 13.4949 128.708 13.8563 128.604 14.1974C128.5 14.5385 128.326 14.8506 128.094 15.1109C128.387 18.1523 128.398 20.8708 128.409 23.5003L128.409 23.5266L128.394 23.5482C126.01 26.7684 123.391 29.9714 120.858 33.0689L120.815 33.1213Z" fill="#3F3D56"/>
<path d="M50.2696 17.4323C54.5914 17.4323 58.0948 13.7079 58.0948 9.11372C58.0948 4.51951 54.5914 0.795166 50.2696 0.795166C45.9479 0.795166 42.4445 4.51951 42.4445 9.11372C42.4445 13.7079 45.9479 17.4323 50.2696 17.4323Z" fill="#5D8BFF"/>
<path d="M49.5239 12.6252L47.1818 9.42388L48.5438 8.29774L49.6528 9.81351L53.3991 5.60938L54.6519 6.87114L49.5239 12.6252Z" fill="white"/>
<path d="M151.834 70.5381H112.287C112.243 70.5381 112.201 70.5196 112.17 70.4866C112.139 70.4536 112.121 70.4088 112.121 70.3622C112.121 70.3155 112.139 70.2708 112.17 70.2378C112.201 70.2048 112.243 70.1863 112.287 70.1863H151.834C151.878 70.1863 151.92 70.2048 151.951 70.2378C151.983 70.2708 152 70.3155 152 70.3622C152 70.4088 151.983 70.4536 151.951 70.4866C151.92 70.5196 151.878 70.5381 151.834 70.5381Z" fill="#3F3D56"/>
</g>
<defs>
<clipPath id="clip0_524_1742">
<rect width="152" height="76" fill="white"/>
</clipPath>
</defs>
</svg>
