<svg width="360" height="294" viewBox="0 0 360 294" fill="none" xmlns="http://www.w3.org/2000/svg">
<g clip-path="url(#clip0_449_1849)">
<path opacity="0.1" d="M26.0352 109.915C33.611 127.648 23.945 148.075 12.585 163.472C8.77534 168.626 4.5876 174.021 4.05323 180.508C3.41707 188.42 8.58631 195.695 14.7225 200.449C25.908 209.114 41.1903 211.793 54.5024 207.423C66.0078 203.655 75.681 195.115 87.2845 191.671C106.704 185.911 127.272 195.461 143.888 207.355C155.648 215.771 168.244 226.004 182.421 224.207C192.403 222.941 200.873 215.681 206.617 207.129C209.39 202.985 211.804 198.377 215.847 195.589C218.249 193.932 221.07 193.054 223.895 192.429C249.668 186.721 277.016 200.653 302.448 193.487C319.624 188.646 333.321 174.575 341.835 158.379C350.349 142.182 354.326 123.888 357.637 105.763C359.989 92.882 361.941 78.984 356.547 67.1317C350.825 54.5937 337.582 46.9948 324.273 45.5745C310.965 44.1542 297.613 48.0911 285.351 53.6443C270.029 60.5877 255.012 70.3076 238.287 70.3415C226.898 70.3641 216.039 65.8206 205.148 62.381C186.907 56.6055 168.004 53.7347 149.126 51.0862C131.063 48.5508 112.825 46.1886 94.653 47.6956C81.7954 48.7542 70.4427 53.8478 57.9667 56.2024C49.8348 57.7395 41.6629 56.5791 33.6837 59.1824C23.8686 62.3659 13.7483 69.7538 13.2066 81.3763C12.6941 92.4262 22.0147 100.5 26.0352 109.915Z" fill="#5D8BFF"/>
<g opacity="0.5">
<path d="M253.696 69.004C251.879 69.5465 249.621 70.948 248.516 74.7946C246.335 82.3294 251.381 87.4832 249.727 95.3081C249.274 97.3886 248.408 99.3481 247.182 101.061C245.157 103.905 242.954 105.254 240.824 107.247C238.116 109.793 236.176 113.095 235.237 116.756C234.207 120.797 234.121 125.034 234.986 129.117C235.746 132.53 237.04 135.013 238.167 137.782C239.57 141.315 240.665 144.972 241.438 148.708C241.868 150.523 242.112 152.381 242.165 154.249C242.202 156.597 241.849 159.147 241.504 161.664L238.425 183.933C238.014 186.898 237.6 189.912 237.585 192.734C237.563 195.992 238.069 198.792 238.57 201.523C239.661 207.415 240.813 213.53 243.296 216.638C245.779 219.746 249.988 218.669 252.58 212.324C255.045 206.296 255.096 198.234 257.27 191.784C260.694 181.612 267.506 180.256 271.283 170.562C274.918 161.264 273.799 149.842 275.645 139.248C276.961 131.649 279.764 124.717 281.425 117.208C283.814 106.392 283.577 95.165 281.669 86.8541C279.76 78.5431 276.336 72.8355 272.556 68.5067C270.952 66.672 269.24 65.0407 267.226 64.8787C265.085 64.7092 263.228 67.5159 261.101 68.341C258.636 69.2941 256.179 68.2731 253.696 69.004Z" fill="#5D8BFF"/>
<path d="M265.289 65.4061C265.289 65.4061 261.654 161.581 246.411 218.296" stroke="#535461" stroke-width="2" stroke-miterlimit="10"/>
<path d="M248.422 75.2655C248.422 75.2655 264.7 90.6403 261.628 119.936" stroke="#535461" stroke-width="2" stroke-miterlimit="10"/>
<path d="M234.746 119.013C234.746 119.013 261.501 124.588 259.516 141.173" stroke="#535461" stroke-width="2" stroke-miterlimit="10"/>
<path d="M281.702 86.6243C281.702 86.6243 270.88 96.4459 261.232 124.265" stroke="#535461" stroke-width="2" stroke-miterlimit="10"/>
<path d="M271.12 170.702C271.12 170.702 263.733 176.73 257.804 155.704" stroke="#535461" stroke-width="2" stroke-miterlimit="10"/>
<path d="M239.254 182.965C239.254 182.965 254.318 180.927 255.706 171.146" stroke="#535461" stroke-width="2" stroke-miterlimit="10"/>
</g>
<path d="M290.11 4.49829C286.38 5.07094 281.894 6.86047 280.051 12.3873C276.434 23.2224 287.434 31.424 284.901 42.7451C284.141 46.1358 282.269 48.8936 280.295 50.9054C276.427 54.8461 272.025 56.5565 267.844 59.2314C263.664 61.9062 259.323 66.1031 257.364 72.5492C255.477 78.7504 256.295 85.6033 258.255 90.7232C260.214 95.8432 263.18 99.6596 265.83 103.872C269.057 109.057 271.756 114.576 273.882 120.339C274.831 122.874 275.7 125.549 276.009 128.586C276.351 132.048 275.918 135.774 275.489 139.421L271.665 171.821C271.156 176.134 270.643 180.523 270.938 184.679C271.269 189.475 272.635 193.657 273.984 197.741C276.892 206.549 280.004 215.7 285.482 220.579C290.96 225.457 299.569 224.391 304.2 215.365C308.609 206.771 307.799 194.923 311.557 185.692C317.483 171.146 331.424 169.971 338.131 156.163C344.569 142.917 340.966 125.971 343.551 110.578C345.405 99.5465 350.418 89.6872 353.002 78.8333C356.71 63.1947 354.94 46.6369 350.032 34.163C345.125 21.689 337.389 12.862 329.072 6.0241C325.546 3.12695 321.801 0.508596 317.628 0.0263659C313.179 -0.486003 309.631 3.39444 305.345 4.3702C300.365 5.5268 295.166 3.7222 290.11 4.49829Z" fill="#5D8BFF"/>
<path d="M313.688 0.617798C313.688 0.617798 317.196 141.806 292.109 223.449" stroke="#535461" stroke-width="2" stroke-miterlimit="10"/>
<path d="M279.906 13.0654C279.906 13.0654 315.393 37.7119 312.354 80.4721" stroke="#535461" stroke-width="2" stroke-miterlimit="10"/>
<path d="M256.612 75.8118C256.612 75.8118 312.623 87.3099 310.412 111.485" stroke="#535461" stroke-width="2" stroke-miterlimit="10"/>
<path d="M350.083 33.8842C350.083 33.8842 328.795 47.0174 312.026 86.7976" stroke="#535461" stroke-width="2" stroke-miterlimit="10"/>
<path d="M337.803 156.397C337.803 156.397 323.205 164.361 308.529 132.662" stroke="#535461" stroke-width="2" stroke-miterlimit="10"/>
<path d="M273.232 170.544C273.232 170.544 304.178 169.391 305.948 155.165" stroke="#535461" stroke-width="2" stroke-miterlimit="10"/>
<path d="M24.4466 201.862C24.4466 201.862 27.4929 206.006 23.0398 212.223C18.5867 218.439 14.9151 223.721 16.4165 227.605C16.4165 227.605 23.1343 216.028 28.6016 215.866C34.0689 215.704 30.4628 208.824 24.4466 201.862Z" fill="#5D8BFF"/>
<path opacity="0.1" d="M24.4467 201.862C24.7121 202.261 24.9214 202.698 25.0683 203.158C30.4047 209.653 33.2438 215.715 28.1182 215.869C23.3416 216.013 17.6125 224.862 16.2384 227.1C16.2837 227.273 16.3384 227.442 16.402 227.609C16.402 227.609 23.1198 216.031 28.5871 215.869C34.0545 215.707 30.4629 208.824 24.4467 201.862Z" fill="black"/>
<path d="M30.1102 207.125C30.1102 208.58 29.9539 209.762 29.7467 209.762C29.5395 209.762 29.3832 208.583 29.3832 207.125C29.3832 205.667 29.5795 206.372 29.7721 206.372C29.9648 206.372 30.1102 205.671 30.1102 207.125Z" fill="#FFD037"/>
<path d="M32.0478 208.858C30.8154 209.555 29.7431 209.988 29.6522 209.796C29.5613 209.604 30.481 208.911 31.7133 208.218C32.9457 207.525 32.4586 208.029 32.5531 208.218C32.6476 208.406 33.2837 208.157 32.0478 208.858Z" fill="#FFD037"/>
<path d="M8.35363 201.862C8.35363 201.862 5.30735 206.006 9.76045 212.223C14.2136 218.439 17.8706 223.721 16.4165 227.605C16.4165 227.605 9.69865 216.028 4.23133 215.866C-1.23599 215.704 2.34103 208.824 8.35363 201.862Z" fill="#5D8BFF"/>
<path opacity="0.1" d="M8.35361 201.862C8.08816 202.261 7.87885 202.698 7.732 203.158C2.39554 209.653 -0.443544 215.715 4.68207 215.869C9.45871 216.013 15.1878 224.862 16.5619 227.1C16.5165 227.273 16.4619 227.442 16.3983 227.609C16.3983 227.609 9.68046 216.031 4.21313 215.869C-1.25419 215.707 2.34101 208.824 8.35361 201.862Z" fill="black"/>
<path d="M2.69373 207.125C2.69373 208.58 2.85004 209.762 3.05724 209.762C3.26445 209.762 3.42076 208.583 3.42076 207.125C3.42076 205.667 3.22446 206.372 3.0318 206.372C2.83913 206.372 2.69373 205.671 2.69373 207.125Z" fill="#FFD037"/>
<path d="M0.748883 208.858C1.98121 209.555 3.05359 209.988 3.14447 209.796C3.23535 209.604 2.31565 208.911 1.08332 208.218C-0.149009 207.525 0.338107 208.029 0.243592 208.218C0.149077 208.406 -0.483446 208.157 0.748883 208.858Z" fill="#FFD037"/>
<path d="M3.66064 227.066C3.66064 227.066 12.1779 226.795 14.7443 224.9C17.3108 223.005 27.831 220.756 28.4817 223.77C29.1324 226.784 41.2812 238.881 31.6661 238.96C22.0511 239.039 9.32427 237.408 6.76146 235.792C4.19865 234.175 3.66064 227.066 3.66064 227.066Z" fill="#A8A8A8"/>
<path opacity="0.2" d="M31.8407 237.92C22.2256 237.999 9.49878 236.368 6.93598 234.752C4.98388 233.52 4.20595 229.101 3.94785 227.062H3.66431C3.66431 227.062 4.20231 234.183 6.76512 235.799C9.32793 237.415 22.0547 239.05 31.6843 238.971C34.4616 238.949 35.4177 237.924 35.3668 236.409C34.956 237.325 33.9054 237.897 31.8407 237.92Z" fill="black"/>
<path d="M114.519 169.892C114.519 169.892 157.142 141.67 186.609 141.67C186.609 141.67 222.085 135.944 260.672 145.622C299.26 155.301 313.513 167.85 324.212 164.165L279.266 165.529L114.519 169.892Z" fill="#8CD0F3"/>
<path opacity="0.1" d="M114.519 169.892C114.519 169.892 157.142 141.67 186.609 141.67C186.609 141.67 222.085 135.944 260.672 145.622C299.26 155.301 313.513 167.85 324.212 164.165L279.266 165.529L114.519 169.892Z" fill="#8CD0F3"/>
<path d="M315.418 213.085H55.473L62.6198 183.409L106.824 171.229L315.418 176.911V213.085Z" fill="#121C3F"/>
<path d="M329.101 194.542V204.013C329.101 204.013 321.383 209.815 320.682 214.359C320.682 214.359 309.631 217.267 306.475 217.267C306.188 217.267 305.876 217.267 305.548 217.301C306.041 215.93 306.427 214.52 306.701 213.085C307.475 209.058 307.377 204.903 306.415 200.92C305.453 196.937 303.651 193.224 301.138 190.049C298.625 186.875 295.464 184.318 291.882 182.562C288.3 180.806 284.388 179.895 280.426 179.895C276.464 179.895 272.551 180.806 268.969 182.562C265.388 184.318 262.226 186.875 259.713 190.049C257.2 193.224 255.398 196.937 254.436 200.92C253.474 204.903 253.376 209.058 254.15 213.085C254.522 215.027 255.094 216.921 255.855 218.736H240.871C240.871 218.736 240.733 218.785 240.508 218.887C239.704 219.264 237.81 220.258 237.538 221.822H113.356L110.811 221.799C111.352 220.858 111.838 219.885 112.265 218.883C113.063 217.028 113.656 215.086 114.032 213.093C114.771 209.287 114.733 205.362 113.919 201.573C113.105 197.783 111.534 194.212 109.307 191.09C107.08 187.968 104.246 185.365 100.989 183.447C97.7315 181.53 94.1226 180.341 90.3948 179.957C86.667 179.574 82.903 180.004 79.3454 181.221C75.7879 182.437 72.5157 184.412 69.74 187.02C66.9642 189.627 64.7464 192.808 63.2295 196.358C61.7126 199.908 60.9303 203.748 60.933 207.63C60.9329 209.46 61.1058 211.286 61.4492 213.081C62.035 216.121 63.109 219.038 64.6263 221.709C62.8524 221.261 58.9809 219.987 58.9809 219.987C58.9809 219.987 42.4953 218.171 38.2858 214.336L38.9219 213.88L41.6192 211.97L40.3905 207.072C40.2422 206.866 40.1201 206.641 40.027 206.402C39.6999 205.584 39.4127 204.066 40.5687 202.16C42.3208 199.251 41.4447 188.891 41.4447 188.891C41.4447 188.891 65.2989 171.806 112.305 167.985C112.305 167.985 113.429 168.89 115.748 169.078C117.318 169.21 119.438 169.01 122.131 167.985C122.131 167.985 125.988 169.801 142.488 159.987C142.488 159.987 170.556 139.99 207.391 141.813C207.391 141.813 245.277 139.447 277.55 152.362C291.458 157.923 302.04 160.888 309.583 162.455C316.548 163.905 320.922 164.173 322.925 164.195H322.968C323.623 164.195 324.012 164.195 324.15 164.195H324.208C324.208 164.195 324.208 168.524 324.43 173.637V173.663C324.51 175.441 324.619 177.314 324.771 179.133V179.246C325.193 184.313 325.92 188.917 327.181 189.829L329.101 194.542Z" fill="#2856B8"/>
<path d="M45.2363 188.477C45.2363 188.477 55.8038 179.932 68.9596 181.752C68.9596 181.752 56.9889 191.57 51.5943 190.933L50.6746 190.115L45.2218 190.432C45.2218 190.432 44.4075 189.113 45.2363 188.477Z" fill="#8CD0F3"/>
<path opacity="0.2" d="M55.4948 203.26V208.304C55.4948 208.304 55.1313 213.123 50.9326 213.304L38.9365 213.918L41.6302 212.008L40.4015 207.11C40.2525 206.905 40.1303 206.681 40.038 206.443C41.1285 205.404 43.6986 203.648 48.926 203.271L55.4948 203.26Z" fill="white"/>
<path opacity="0.2" d="M111.317 182.117L120.525 181.74C120.525 181.74 116.799 184.784 114.167 185.059C111.535 185.334 111.317 182.117 111.317 182.117Z" fill="white"/>
<path opacity="0.2" d="M130.7 211.066C130.7 211.066 213.971 199.067 234.099 202.883C234.099 202.883 240.017 203.294 242.256 205.746C244.496 208.199 242.256 206.609 242.256 206.609L130.7 211.066Z" fill="white"/>
<path opacity="0.5" d="M177.314 177.389C177.314 177.389 178.368 175.343 180.076 175.298L191.171 174.707C191.171 174.707 190.996 176.296 189.023 176.888L177.314 177.389Z" fill="#18218A"/>
<path opacity="0.5" d="M241.511 173.934C241.511 173.934 242.565 171.889 244.274 171.843L255.368 171.237C255.368 171.237 255.194 172.827 253.22 173.418L241.511 173.934Z" fill="#18218A"/>
<path d="M203.629 145.905L195.115 169.044L164.42 169.078H156.517H149.643H143.699H136.967C136.967 169.078 141.067 165.959 147.672 161.984C149.853 160.665 152.329 159.256 155.015 157.84C157.487 156.529 160.148 155.203 162.944 153.944C165.125 152.95 167.422 151.993 169.771 151.1C180.418 147.065 192.385 144.356 203.629 145.905Z" fill="#8CD0F3"/>
<path d="M251.86 162.802C251.86 162.802 239.036 164.772 226.796 166.23C222.117 166.787 217.526 167.27 213.767 167.537L213.244 167.575C211.79 167.673 210.441 167.737 209.296 167.759C207.478 167.793 206.119 167.71 205.439 167.484L208.976 145.351C208.976 145.351 213.338 145.4 219.791 145.728L221.201 145.807C222.543 145.886 223.957 145.976 225.433 146.082C227.541 146.232 229.762 146.413 232.052 146.632C243.111 147.683 255.637 149.57 263.569 152.969C280.448 160.21 251.86 162.802 251.86 162.802Z" fill="#8CD0F3"/>
<path d="M310.969 173.934V179.842C310.969 179.842 301.761 179.977 303.735 178.071C305.012 176.805 306.172 175.418 307.199 173.927L310.969 173.934Z" fill="#8CD0F3"/>
<path d="M324.764 179.239L317.286 179.845V172.744C317.286 172.744 320.751 167.699 324.215 173.29L324.415 173.618L324.764 179.239Z" fill="#8CD0F3"/>
<path d="M87.7498 229.809C99.5689 229.809 109.15 219.879 109.15 207.63C109.15 195.381 99.5689 185.451 87.7498 185.451C75.9308 185.451 66.3495 195.381 66.3495 207.63C66.3495 219.879 75.9308 229.809 87.7498 229.809Z" fill="#182A7C"/>
<path d="M104.915 207.611C104.923 212.188 103.234 216.593 100.198 219.916C97.1619 223.239 93.01 225.226 88.6003 225.468C84.1905 225.709 79.8597 224.186 76.5026 221.213C73.1454 218.24 71.0184 214.044 70.5609 209.492C70.1034 204.94 71.3503 200.38 74.0442 196.754C76.738 193.127 80.6729 190.712 85.036 190.006C89.3991 189.3 93.8571 190.358 97.4889 192.962C101.121 195.565 103.649 199.515 104.552 203.994C104.791 205.184 104.913 206.396 104.915 207.611Z" fill="#3F8FFE"/>
<path opacity="0.5" d="M87.7244 222.937C95.8734 222.937 102.48 216.074 102.48 207.607C102.48 199.141 95.8734 192.278 87.7244 192.278C79.5753 192.278 72.9691 199.141 72.9691 207.607C72.9691 216.074 79.5753 222.937 87.7244 222.937Z" fill="#18218A"/>
<path d="M92.661 190.496V191.144L87.7499 207.996L83.8093 190.217C86.7331 189.511 89.784 189.607 92.661 190.496Z" fill="#3F8FFE"/>
<path d="M92.6246 224.734C89.8117 225.597 86.8328 225.704 83.9692 225.043L87.7462 207.995L92.6246 224.734Z" fill="#3F8FFE"/>
<path d="M104.915 207.611C104.918 209.47 104.641 211.318 104.094 213.089H104.025L87.7644 207.999L104.581 203.998C104.81 205.188 104.922 206.398 104.915 207.611Z" fill="#3F8FFE"/>
<path d="M87.7499 207.995L71.4897 213.085H71.3624C70.4568 210.143 70.2954 207.009 70.8935 203.983L87.7499 207.995Z" fill="#3F8FFE"/>
<path d="M87.7243 209.563C88.7663 209.563 89.611 208.687 89.611 207.607C89.611 206.528 88.7663 205.652 87.7243 205.652C86.6823 205.652 85.8376 206.528 85.8376 207.607C85.8376 208.687 86.6823 209.563 87.7243 209.563Z" fill="#182A7C"/>
<path d="M280.295 229.809C292.114 229.809 301.695 219.879 301.695 207.63C301.695 195.381 292.114 185.451 280.295 185.451C268.476 185.451 258.895 195.381 258.895 207.63C258.895 219.879 268.476 229.809 280.295 229.809Z" fill="#182A7C"/>
<path d="M297.464 207.611C297.472 212.188 295.783 216.593 292.747 219.916C289.71 223.239 285.559 225.226 281.149 225.468C276.739 225.709 272.408 224.186 269.051 221.213C265.694 218.24 263.567 214.044 263.109 209.492C262.652 204.94 263.899 200.38 266.593 196.754C269.287 193.127 273.221 190.712 277.585 190.006C281.948 189.3 286.406 190.358 290.038 192.962C293.669 195.565 296.198 199.515 297.1 203.994C297.34 205.184 297.461 206.396 297.464 207.611Z" fill="#3F8FFE"/>
<path opacity="0.5" d="M280.273 222.937C288.422 222.937 295.028 216.074 295.028 207.607C295.028 199.141 288.422 192.278 280.273 192.278C272.124 192.278 265.518 199.141 265.518 207.607C265.518 216.074 272.124 222.937 280.273 222.937Z" fill="#18218A"/>
<path d="M285.206 190.496V191.144L280.295 207.996L276.354 190.217C279.278 189.511 282.329 189.607 285.206 190.496Z" fill="#3F8FFE"/>
<path d="M285.173 224.734C282.36 225.597 279.381 225.704 276.518 225.043L280.295 207.995L285.173 224.734Z" fill="#3F8FFE"/>
<path d="M297.464 207.611C297.466 209.47 297.189 211.318 296.642 213.089H296.559L280.295 207.996L297.111 203.995C297.346 205.185 297.464 206.396 297.464 207.611Z" fill="#3F8FFE"/>
<path d="M280.295 207.995L264.035 213.085H263.907C263.002 210.143 262.84 207.009 263.439 203.983L280.295 207.995Z" fill="#3F8FFE"/>
<path d="M280.273 209.563C281.315 209.563 282.16 208.687 282.16 207.607C282.16 206.528 281.315 205.652 280.273 205.652C279.231 205.652 278.386 206.528 278.386 207.607C278.386 208.687 279.231 209.563 280.273 209.563Z" fill="#182A7C"/>
<path opacity="0.2" d="M155.019 157.862L149.642 169.093H143.699L147.672 162.007C149.864 160.688 152.333 159.283 155.019 157.862Z" fill="white"/>
<path opacity="0.2" d="M169.771 151.123L164.416 169.082H156.513L162.947 153.959C165.143 152.972 167.426 152.023 169.771 151.123Z" fill="white"/>
<path opacity="0.2" d="M225.44 146.101L213.774 167.541L213.251 167.579C211.797 167.677 210.448 167.741 209.303 167.763L219.798 145.75L221.208 145.829C222.532 145.905 223.957 145.995 225.44 146.101Z" fill="white"/>
<path opacity="0.2" d="M137.17 169.018L130.51 216.559L186.133 215.297L195.264 169.225L137.17 169.018Z" stroke="white" stroke-miterlimit="10"/>
<path opacity="0.5" d="M240.511 218.872C239.708 219.249 237.814 220.243 237.541 221.807H113.356L110.812 221.784C111.352 220.843 111.838 219.87 112.266 218.868L240.511 218.872Z" fill="#18218A"/>
<path d="M133.146 253.227C133.993 252.41 134.789 251.445 135.036 250.274C135.284 249.102 134.8 247.693 133.717 247.26C132.506 246.777 131.209 247.636 130.227 248.529C129.246 249.422 128.119 250.413 126.835 250.225C127.496 249.603 127.991 248.815 128.27 247.937C128.55 247.059 128.605 246.121 128.431 245.214C128.375 244.839 128.222 244.488 127.988 244.197C127.315 243.443 126.094 243.771 125.29 244.359C122.746 246.242 122.019 249.833 122.001 253.08C121.742 251.909 121.961 250.688 121.953 249.486C121.946 248.284 121.63 246.954 120.652 246.306C120.043 245.967 119.358 245.801 118.667 245.824C117.515 245.779 116.232 245.9 115.446 246.774C114.468 247.859 114.719 249.678 115.574 250.873C116.428 252.067 117.718 252.817 118.907 253.642C119.861 254.231 120.675 255.036 121.288 255.996C121.361 256.13 121.42 256.272 121.466 256.418H128.686C130.305 255.568 131.805 254.494 133.146 253.227Z" fill="#5D8BFF"/>
<path d="M284.039 259.564C284.705 259.001 285.191 258.242 285.431 257.386C285.613 256.52 285.257 255.484 284.457 255.167C283.563 254.813 282.607 255.454 281.883 256.105C281.16 256.757 280.328 257.496 279.379 257.356C279.866 256.898 280.231 256.317 280.438 255.669C280.644 255.021 280.685 254.329 280.557 253.66C280.516 253.383 280.402 253.123 280.229 252.907C279.731 252.357 278.833 252.594 278.237 253.027C276.347 254.406 275.82 257.066 275.809 259.462C275.62 258.599 275.78 257.699 275.773 256.825C275.765 255.951 275.533 254.941 274.813 254.482C274.367 254.233 273.865 254.11 273.359 254.124C272.508 254.09 271.563 254.18 270.982 254.825C270.254 255.623 270.447 256.968 271.076 257.838C271.705 258.709 272.657 259.27 273.537 259.88C274.242 260.315 274.844 260.909 275.296 261.617C275.35 261.715 275.394 261.819 275.427 261.926H280.753C281.946 261.296 283.052 260.501 284.039 259.564Z" fill="#5D8BFF"/>
<path d="M307.668 271.548C308.334 270.985 308.82 270.226 309.06 269.371C309.242 268.504 308.886 267.468 308.086 267.152C307.192 266.797 306.236 267.438 305.512 268.09C304.789 268.741 303.956 269.48 303.008 269.34C303.495 268.882 303.86 268.301 304.066 267.653C304.273 267.006 304.314 266.314 304.185 265.645C304.144 265.367 304.031 265.107 303.858 264.891C303.36 264.341 302.462 264.578 301.866 265.012C299.976 266.39 299.449 269.05 299.438 271.446C299.249 270.584 299.409 269.683 299.401 268.809C299.394 267.935 299.162 266.925 298.442 266.466C297.995 266.217 297.494 266.094 296.988 266.108C296.137 266.074 295.192 266.164 294.61 266.809C293.883 267.607 294.076 268.952 294.705 269.823C295.334 270.693 296.286 271.254 297.166 271.865C297.871 272.299 298.472 272.893 298.925 273.601C298.979 273.7 299.022 273.803 299.056 273.91H304.382C305.575 273.28 306.68 272.486 307.668 271.548Z" fill="#5D8BFF"/>
<path opacity="0.1" d="M179.404 188.243C179.02 188.806 178.669 189.392 178.353 189.999C175.99 194.666 170.494 187.079 172.395 184.457L173.707 183.187C173.228 189.207 177.957 188.567 179.404 188.243Z" fill="black"/>
<path opacity="0.1" d="M188.488 198.867H188.361C188.361 198.867 192.541 197.699 188.488 198.867Z" fill="black"/>
<path opacity="0.1" d="M223.048 220.684V221.325C223 221.114 223 220.895 223.048 220.684Z" fill="black"/>
<path opacity="0.1" d="M234.495 231.139C232.102 231.902 229.547 231.926 227.141 231.207L226.538 229.549L233.855 227.914C233.855 227.914 234.121 229.255 234.495 231.139Z" fill="black"/>
</g>
<path d="M281.061 107.467L282.514 95.8052C282.769 93.7523 283.425 91.7699 284.446 89.9711C285.466 88.1723 286.831 86.5924 288.461 85.3216C290.092 84.0509 291.956 83.1142 293.948 82.565C295.941 82.0159 298.021 81.8651 300.072 82.1211C302.122 82.3772 304.102 83.0353 305.899 84.0576C307.695 85.0799 309.273 86.4466 310.541 88.0794C311.81 89.7123 312.745 91.5794 313.292 93.574C313.84 95.5687 313.99 97.6518 313.733 99.7045L312.28 111.367C312.21 111.923 311.922 112.429 311.48 112.773C311.038 113.118 310.478 113.273 309.922 113.204L282.896 109.828C282.34 109.758 281.835 109.47 281.49 109.028C281.146 108.585 280.992 108.024 281.061 107.467Z" fill="#2F2E41"/>
<path d="M294.006 110.947C300.376 110.947 305.539 105.777 305.539 99.4004C305.539 93.0237 300.376 87.8542 294.006 87.8542C287.637 87.8542 282.473 93.0237 282.473 99.4004C282.473 105.777 287.637 110.947 294.006 110.947Z" fill="#FFB8B8"/>
<path d="M278.705 96.2769C279.117 92.9999 280.811 90.0204 283.414 87.9921C286.018 85.9637 289.319 85.0521 292.593 85.4573L294.923 85.7483C298.197 86.1609 301.173 87.8565 303.199 90.4631C305.225 93.0698 306.135 96.3745 305.731 99.6524L305.702 99.8857L300.778 99.2707L299.685 94.3533L298.763 99.019L296.218 98.7012L295.667 96.2201L295.201 98.5742L278.676 96.5102L278.705 96.2769Z" fill="#2F2E41"/>
<path d="M237.598 140.588C237.95 141.281 238.45 141.888 239.062 142.366C239.675 142.845 240.384 143.183 241.141 143.357C241.898 143.532 242.684 143.538 243.443 143.375C244.203 143.212 244.917 142.885 245.537 142.416L256.012 148.559L261.294 143.096L246.379 134.629C245.523 133.639 244.334 132.999 243.037 132.828C241.741 132.658 240.427 132.969 239.344 133.704C238.262 134.438 237.486 135.545 237.164 136.813C236.842 138.082 236.997 139.425 237.598 140.588Z" fill="#FFB8B8"/>
<path d="M271.93 151.627C264.203 151.627 250.607 148.164 249.854 147.97L249.616 147.909L251.756 137.063L272.524 141.169L283.806 125.263L296.759 123.945L296.398 124.421C296.229 124.643 279.532 146.649 276.933 150.34C276.278 151.271 274.405 151.627 271.93 151.627Z" fill="#3F3D56"/>
<path d="M274.002 192.338L273.693 192.19C273.627 192.159 267.062 188.962 263.662 182.721C260.278 176.51 276.119 150.162 277.228 148.333L277.244 139.966L282.942 124.563L290.21 120.45L283.97 135.026L274.002 192.338Z" fill="#3F3D56"/>
<path d="M266.721 282.271L259.775 282.271L256.471 255.449L266.722 255.45L266.721 282.271Z" fill="#FFB8B8"/>
<path d="M268.492 289.012L246.095 289.011V288.727C246.095 286.413 247.014 284.193 248.649 282.556C250.284 280.92 252.501 280 254.813 280H254.813L268.493 280.001L268.492 289.012Z" fill="#2F2E41"/>
<path d="M341.329 276.177L334.728 278.342L323.245 253.884L332.988 250.689L341.329 276.177Z" fill="#FFB8B8"/>
<path d="M345.109 282.031L323.825 289.012L323.737 288.742C323.017 286.543 323.2 284.147 324.244 282.082C325.289 280.017 327.11 278.452 329.307 277.731L329.307 277.731L342.306 273.467L345.109 282.031Z" fill="#2F2E41"/>
<path d="M327.88 271.792L308.079 238.698L291.364 203.34L276.322 234.573L270.347 275.024L249.391 275.315L249.474 274.987L281.542 147.422L306.658 151.178L305.514 167.775L306.195 168.745C311.869 176.813 317.735 185.156 314.37 194.149L323.908 222.502L345.021 269.712L327.88 271.792Z" fill="#2F2E41"/>
<path d="M282.69 175.069C279.05 175.069 274.898 170.909 277.052 163.806L276.913 163.705L282.087 140.821C277.571 134.356 283.524 129.021 284.082 128.544L286.924 123.423L299.462 115.463L305.806 168.231L305.712 168.321C301.13 172.71 285.742 175.069 282.69 175.069Z" fill="#5D8BFF"/>
<path d="M308.367 186.976C307.869 186.984 307.371 186.931 306.886 186.819C306.398 186.697 305.609 186.075 304.389 182.099C299.539 166.292 293.814 118.73 297.973 114.075L298.069 113.969L304.899 115.108C305.466 114.689 308.446 112.607 311.195 112.969C311.761 113.04 312.306 113.227 312.797 113.517C313.288 113.808 313.715 114.196 314.05 114.658L314.097 114.72L316.273 145.71L324.244 182.179L324.053 182.266C323.589 182.477 313.636 186.976 308.367 186.976Z" fill="#3F3D56"/>
<path d="M303.773 174.864C304.55 174.838 305.311 174.642 306.003 174.289C306.696 173.937 307.302 173.437 307.781 172.825C308.259 172.212 308.598 171.502 308.773 170.745C308.948 169.987 308.954 169.2 308.792 168.44L318.791 161.546L316.088 154.441L302.105 164.375C300.847 164.732 299.763 165.539 299.059 166.642C298.355 167.745 298.08 169.069 298.286 170.361C298.492 171.654 299.164 172.827 300.175 173.656C301.187 174.486 302.467 174.916 303.773 174.864H303.773Z" fill="#FFB8B8"/>
<path d="M315.491 167.07L306.586 160.531L319.104 143.442L309.497 126.469L313.795 114.165L314.073 114.695C314.203 114.942 327.032 139.41 329.27 143.331C331.599 147.41 316.3 166.087 315.648 166.88L315.491 167.07Z" fill="#3F3D56"/>
<path d="M157.289 128.035C145.503 131.377 134.524 122.585 132.374 114.156L133.196 113.98C143.139 111.423 154.564 118.212 157.289 128.035Z" fill="#5D8BFF"/>
<path d="M69.6382 188.146C69.5996 187.332 69.3833 186.536 69.0043 185.814C68.6253 185.093 68.0929 184.464 67.4447 183.97C66.7964 183.477 66.0481 183.132 65.2523 182.96C64.4565 182.788 63.6327 182.792 62.8388 182.973L55.4741 172.583L48.0752 175.523L58.6816 190.051C59.0736 191.366 59.9339 192.491 61.0993 193.213C62.2648 193.936 63.6544 194.205 65.005 193.97C66.3555 193.735 67.5731 193.013 68.4271 191.939C69.281 190.866 69.7119 189.516 69.6382 188.146H69.6382Z" fill="#A0616A"/>
<path d="M55.2846 187.376L33 158.433L41.3498 132.162C41.9617 125.557 46.0903 123.712 46.2659 123.637L46.5339 123.522L53.7998 142.92L48.4649 157.162L61.5592 179.21L55.2846 187.376Z" fill="#3F3D56"/>
<path d="M132.675 98.1561C131.867 98.2575 131.092 98.535 130.403 98.969C129.713 99.4031 129.128 99.9831 128.687 100.668C128.246 101.353 127.96 102.127 127.85 102.935C127.74 103.742 127.808 104.564 128.05 105.343L118.271 113.497L121.772 120.655L135.419 108.945C136.699 108.452 137.753 107.506 138.382 106.287C139.012 105.068 139.172 103.66 138.834 102.33C138.496 101 137.682 99.841 136.547 99.0717C135.412 98.3023 134.034 97.9766 132.675 98.1561H132.675Z" fill="#A0616A"/>
<path d="M133.018 112.543L105.918 137.023L79.1087 130.72C72.4835 130.62 70.3275 126.642 70.2388 126.472L70.1035 126.214L88.86 117.462L103.456 121.685L124.401 106.911L133.018 112.543Z" fill="#3F3D56"/>
<path d="M86.0765 286.575H93.3578L96.8214 258.458L86.0748 258.459L86.0765 286.575Z" fill="#A0616A"/>
<path d="M107.4 293.343L84.5163 293.344L84.5159 284.493L99.5618 284.492C101.641 284.492 103.634 285.318 105.104 286.79C106.574 288.261 107.4 290.257 107.4 292.338L107.4 293.343Z" fill="#2F2E41"/>
<path d="M56.9746 286.575H64.2559L67.7194 258.458L56.9729 258.459L56.9746 286.575Z" fill="#A0616A"/>
<path d="M78.2983 293.343L55.4142 293.344L55.4138 284.493L70.4597 284.492C71.4891 284.492 72.5083 284.695 73.4593 285.089C74.4103 285.483 75.2744 286.061 76.0023 286.79C76.7302 287.519 77.3076 288.384 77.7015 289.336C78.0955 290.288 78.2982 291.308 78.2983 292.338L78.2983 293.343Z" fill="#2F2E41"/>
<path d="M54.3848 183.946L54.9788 225.567L55.5722 280.269L68.6387 279.08L75.1717 203.568L83.4867 279.08H96.9762L98.3347 202.973L93.5831 186.324L54.3848 183.946Z" fill="#2F2E41"/>
<path d="M79.9585 189.535C65.7417 189.536 52.6552 183.095 52.4786 183.006L52.3318 182.933L51.1388 154.269C50.7928 153.256 43.9803 133.269 42.8265 126.916C41.6576 120.479 58.6 114.831 60.6573 114.17L61.1242 108.992L80.1102 106.944L82.5166 113.569L89.328 116.126C90.1001 116.416 90.7392 116.98 91.1241 117.71C91.5089 118.441 91.6128 119.287 91.4161 120.089L87.6304 135.501L96.8763 186.492L94.8857 186.579C90.1759 188.613 85.0874 189.621 79.9585 189.535Z" fill="#3F3D56"/>
<path d="M71.3612 103.666C78.911 103.666 85.0313 97.5384 85.0313 89.9801C85.0313 82.4219 78.911 76.2947 71.3612 76.2947C63.8115 76.2947 57.6912 82.4219 57.6912 89.9801C57.6912 97.5384 63.8115 103.666 71.3612 103.666Z" fill="#A0616A"/>
<path d="M60.2884 103.228C62.8936 106.006 67.7318 104.515 68.0712 100.719C68.0978 100.425 68.0959 100.128 68.0654 99.8339C67.8902 98.1527 66.92 96.6263 67.1524 94.8512C67.205 94.4094 67.3694 93.9884 67.63 93.628C69.706 90.845 74.5793 94.8728 76.5386 92.3534C77.7399 90.8085 76.3277 88.3762 77.2497 86.6496C78.4664 84.3707 82.0705 85.4949 84.3306 84.2469C86.8452 82.8583 86.6948 78.9957 85.0395 76.6463C83.0208 73.7812 79.4813 72.2523 75.9859 72.032C72.4905 71.8116 69.0192 72.7576 65.756 74.0307C62.0483 75.4773 58.3715 77.4765 56.0899 80.7403C53.3151 84.7095 53.0481 90.0458 54.4358 94.687C55.28 97.5103 58.161 100.959 60.2884 103.228Z" fill="#2F2E41"/>
<defs>
<clipPath id="clip0_449_1849">
<rect width="360" height="273.903" fill="white"/>
</clipPath>
</defs>
</svg>
