<svg width="854" height="677" viewBox="0 0 854 677" fill="none" xmlns="http://www.w3.org/2000/svg">
<rect x="124.368" y="384" width="607" height="208" rx="80" fill="#5D8BFF"/>
<rect x="572.368" y="551" width="126" height="52" fill="#5D8BFF"/>
<path d="M156.368 604C156.368 580.804 175.172 562 198.368 562H240.368C263.564 562 282.368 580.804 282.368 604V635C282.368 658.196 263.564 677 240.368 677H198.368C175.172 677 156.368 658.196 156.368 635V604Z" fill="#5D8BFF"/>
<path d="M156.368 604C156.368 580.804 175.172 562 198.368 562H240.368C263.564 562 282.368 580.804 282.368 604V635C282.368 658.196 263.564 677 240.368 677H198.368C175.172 677 156.368 658.196 156.368 635V604Z" fill="#5D8BFF"/>
<path d="M572.368 604C572.368 580.804 591.172 562 614.368 562H656.368C679.564 562 698.368 580.804 698.368 604V635C698.368 658.196 679.564 677 656.368 677H614.368C591.172 677 572.368 658.196 572.368 635V604Z" fill="#5D8BFF"/>
<path d="M572.368 604C572.368 580.804 591.172 562 614.368 562H656.368C679.564 562 698.368 580.804 698.368 604V635C698.368 658.196 679.564 677 656.368 677H614.368C591.172 677 572.368 658.196 572.368 635V604Z" fill="#5D8BFF"/>
<rect x="156.368" y="551" width="126" height="52" fill="#5D8BFF"/>
<path d="M320.368 234C320.368 224.611 327.979 217 337.368 217H510.368C519.757 217 527.368 224.611 527.368 234V284C527.368 293.389 519.757 301 510.368 301H337.368C327.979 301 320.368 293.389 320.368 284V234Z" fill="#5D8BFF"/>
<rect x="96.8691" y="183.308" width="336" height="66" transform="rotate(-28.557 96.8691 183.308)" fill="#5D8BFF"/>
<rect x="462.26" y="22" width="336" height="66" transform="rotate(28.8946 462.26 22)" fill="#5D8BFF"/>
<path d="M11.0361 256.569C4.94085 245.425 9.03425 231.449 20.1789 225.354L97.0716 183.3C108.216 177.205 122.192 181.298 128.287 192.443L137.809 209.854C143.905 220.998 139.811 234.974 128.667 241.069L51.7739 283.123C40.6293 289.218 26.6536 285.125 20.5584 273.98L11.0361 256.569Z" fill="#5D8BFF"/>
<path d="M724.872 193.306C730.953 182.154 744.924 178.043 756.076 184.125L833.02 226.086C844.172 232.168 848.282 246.138 842.2 257.29L832.699 274.713C826.617 285.865 812.647 289.975 801.495 283.893L724.551 241.933C713.399 235.851 709.289 221.88 715.37 210.728L724.872 193.306Z" fill="#5D8BFF"/>
<rect x="384.335" y="26.888" width="49.5431" height="34" rx="6" transform="rotate(-29.023 384.335 26.888)" fill="#5D8BFF"/>
<rect x="424.215" width="58.4578" height="35.6518" rx="12" transform="rotate(30.0381 424.215 0)" fill="#5D8BFF"/>
<path d="M394.368 41H453.368L454.368 81H395.368L394.368 41Z" fill="#5D8BFF"/>
<rect x="176.368" y="399.785" width="102" height="84.5739" rx="11" transform="rotate(-68.3205 176.368 399.785)" fill="#5D8BFF"/>
<rect x="648.907" y="305" width="102" height="84.532" rx="11" transform="rotate(70.2783 648.907 305)" fill="#5D8BFF"/>
<rect x="269.368" y="230.444" width="66.6404" height="60.8822" rx="30.4411" transform="rotate(-18.7715 269.368 230.444)" fill="#5D8BFF"/>
<rect x="214.368" y="289.989" width="82.6482" height="84.1542" rx="41.3241" transform="rotate(-48.5933 214.368 289.989)" fill="#5D8BFF"/>
<rect x="508.368" y="277.989" width="84.2153" height="84.1542" rx="41.3241" transform="rotate(-48.5933 508.368 277.989)" fill="#5D8BFF"/>
<rect x="470.368" y="263.164" width="84.2153" height="84.1542" rx="41.3241" transform="rotate(-48.5933 470.368 263.164)" fill="#5D8BFF"/>
<rect x="251.368" y="266.164" width="84.2153" height="84.1542" rx="41.3241" transform="rotate(-48.5933 251.368 266.164)" fill="#5D8BFF"/>
<path d="M490.741 290.471C473.447 275.419 471.713 249.165 486.877 231.969L487.736 230.994C502.831 213.877 528.945 212.237 546.063 227.332L546.957 228.12C564.166 243.296 565.717 269.586 550.411 286.68L549.55 287.643C534.476 304.477 508.677 306.083 491.632 291.247L490.741 290.471Z" fill="#5D8BFF"/>
<path d="M311.368 224.5C311.368 220.358 314.726 217 318.868 217H334.868C339.01 217 342.368 220.358 342.368 224.5C342.368 228.642 339.01 232 334.868 232H318.868C314.726 232 311.368 228.642 311.368 224.5Z" fill="#5D8BFF"/>
<rect x="309.368" y="218.167" width="11.9873" height="9.6713" rx="4.83565" transform="rotate(-5.58678 309.368 218.167)" fill="#5D8BFF"/>
<rect x="316.368" y="217" width="1" height="1" fill="#5D8BFF"/>
<rect x="317.368" y="217" width="1" height="1" fill="#5D8BFF"/>
<rect x="247.805" y="247.785" width="84.8183" height="85.8022" rx="19" transform="rotate(30.3232 247.805 247.785)" fill="#5D8BFF"/>
<path d="M649.845 309.389C655.501 318.978 652.691 331.315 643.44 337.508L608.036 361.212C598.399 367.665 585.355 365.083 578.903 355.445L547.246 308.162C540.718 298.412 543.446 285.205 553.302 278.839L588.242 256.27C596.945 250.649 608.448 252.215 615.332 259.959L619.368 264.5L634.868 284L649.845 309.389Z" fill="#5D8BFF"/>
<path d="M242.065 265.894C240.46 262.685 241.127 258.805 243.71 256.315L251.818 248.5L253.868 246.5L261.368 240L269.368 234L276.868 229.5L277.206 229.297C281.964 226.443 287.072 224.155 292.368 222.5L298.178 220.449C299.921 219.834 301.82 219.823 303.569 220.418L312.464 223.443C316.899 224.95 316.953 231.203 312.545 232.787C312.181 232.918 311.833 233.091 311.51 233.303L256.532 269.242C253.596 271.161 249.883 271.448 246.687 270.002L246.022 269.701C244.305 268.924 242.908 267.58 242.065 265.894Z" fill="#5D8BFF"/>
<path d="M534.053 243.824C519.023 236.211 527.524 213.414 543.868 217.5L550.868 219L558.868 221.5L568.049 224.866C571.921 226.286 575.66 228.045 579.222 230.123L579.868 230.5L585.368 234.5L590.868 238.5L596.368 243L609.59 254.61C613.638 258.164 614.111 264.298 610.655 268.43C607.877 271.752 603.264 272.889 599.26 271.237L539.523 246.595L534.053 243.824Z" fill="#5D8BFF"/>
<path d="M511.368 217H539.696L541.834 217.5L542.368 226H511.368V217Z" fill="#5D8BFF"/>
<path d="M302.368 281H337.368V301L326.868 302.5L314.868 308.5L305.368 317L302.368 301V281Z" fill="#5D8BFF"/>
<path d="M560.368 281H514.368L510.868 301L528.168 302.5L543.868 309L549.868 313L553.868 316.5L556.425 317L560.368 301V281Z" fill="#5D8BFF"/>
<path d="M228 498.877C228 475.321 247.318 456.343 270.87 456.761L283.747 456.99C301.115 457.298 316.546 468.144 322.719 484.38L334.49 515.342C335.159 517.104 335.562 518.956 335.685 520.837C336.397 531.754 327.734 541 316.794 541H270.123C246.859 541 228 522.141 228 498.877Z" fill="#F7F8F9"/>
<path d="M622 498.877C622 475.321 602.682 456.343 579.13 456.761L566.253 456.99C548.885 457.298 533.454 468.144 527.281 484.38L515.51 515.342C514.841 517.104 514.438 518.956 514.315 520.837C513.603 531.754 522.266 541 533.206 541H579.877C603.141 541 622 522.141 622 498.877Z" fill="#F7F8F9"/>
</svg>
