<svg width="1024" height="1024" viewBox="0 0 1024 1024" fill="none" xmlns="http://www.w3.org/2000/svg">
<rect x="324.818" y="540.184" width="374.923" height="128.474" rx="64.2372" fill="white"/>
<rect x="601.532" y="643.334" width="77.8259" height="32.1186" fill="white"/>
<path d="M344.583 685.644C344.583 666.029 360.484 650.128 380.099 650.128H386.893C406.508 650.128 422.409 666.029 422.409 685.644V685.644C422.409 705.259 406.508 721.16 386.893 721.16H380.099C360.484 721.16 344.583 705.259 344.583 685.644V685.644Z" fill="white"/>
<path d="M344.583 676.07C344.583 661.743 356.198 650.128 370.525 650.128H396.467C410.794 650.128 422.409 661.743 422.409 676.07V695.218C422.409 709.545 410.794 721.16 396.467 721.16H370.525C356.198 721.16 344.583 709.545 344.583 695.218V676.07Z" fill="white"/>
<path d="M601.532 685.644C601.532 666.029 617.433 650.128 637.048 650.128H643.842C663.457 650.128 679.358 666.029 679.358 685.644V685.644C679.358 705.259 663.457 721.16 643.842 721.16H637.048C617.433 721.16 601.532 705.259 601.532 685.644V685.644Z" fill="white"/>
<path d="M601.532 676.07C601.532 661.743 613.147 650.128 627.474 650.128H653.416C667.743 650.128 679.358 661.743 679.358 676.07V695.218C679.358 709.545 667.743 721.16 653.416 721.16H627.474C613.147 721.16 601.532 709.545 601.532 695.218V676.07Z" fill="white"/>
<rect x="344.583" y="643.334" width="77.8259" height="32.1186" fill="white"/>
<path d="M445.881 454.033C445.881 444.645 453.492 437.033 462.881 437.033H556.738C566.126 437.033 573.738 444.645 573.738 454.033V471.917C573.738 481.306 566.127 488.917 556.738 488.917H462.881C453.492 488.917 445.881 481.306 445.881 471.917V454.033Z" fill="white"/>
<rect x="307.833" y="416.223" width="207.536" height="40.7659" transform="rotate(-28.557 307.833 416.223)" fill="white"/>
<rect x="533.522" y="316.589" width="207.536" height="40.7659" transform="rotate(28.8946 533.522 316.589)" fill="white"/>
<path d="M257.757 466.851C252.368 456.998 255.988 444.642 265.841 439.253L302.581 419.159C312.434 413.77 324.79 417.389 330.179 427.242V427.242C335.568 437.096 331.949 449.452 322.096 454.841L285.356 474.935C275.503 480.324 263.146 476.705 257.757 466.851V466.851Z" fill="white"/>
<path d="M692.794 427.779C698.171 417.919 710.523 414.285 720.383 419.662L757.147 439.711C767.007 445.088 770.641 457.44 765.264 467.3V467.3C759.887 477.16 747.535 480.794 737.675 475.417L700.911 455.368C691.051 449.991 687.417 437.639 692.794 427.779V427.779Z" fill="white"/>
<rect x="485.391" y="319.608" width="30.601" height="21.0006" rx="6" transform="rotate(-29.023 485.391 319.608)" fill="white"/>
<rect x="510.023" y="303" width="36.1074" height="22.0209" rx="11.0104" transform="rotate(30.0381 510.023 303)" fill="white"/>
<path d="M491.588 328.324H528.03L528.648 353.031H492.206L491.588 328.324Z" fill="white"/>
<rect x="356.937" y="549.933" width="63.0019" height="52.2384" rx="11" transform="rotate(-68.3205 356.937 549.933)" fill="white"/>
<rect x="648.808" y="491.388" width="63.0019" height="52.2125" rx="11" transform="rotate(70.2783 648.808 491.388)" fill="white"/>
<rect x="414.38" y="445.338" width="41.1615" height="37.6049" rx="18.8024" transform="rotate(-18.7715 414.38 445.338)" fill="white"/>
<rect x="380.408" y="482.116" width="51.049" height="51.9792" rx="25.5245" transform="rotate(-48.5933 380.408 482.116)" fill="white"/>
<rect x="562.002" y="474.704" width="52.0169" height="51.9792" rx="25.9896" transform="rotate(-48.5933 562.002 474.704)" fill="white"/>
<rect x="538.53" y="465.548" width="52.0169" height="51.9792" rx="25.9896" transform="rotate(-48.5933 538.53 465.548)" fill="white"/>
<rect x="403.262" y="467.401" width="52.0169" height="51.9792" rx="25.9896" transform="rotate(-48.5933 403.262 467.401)" fill="white"/>
<path d="M551.392 482.656C540.557 473.225 539.493 456.751 548.994 445.977V445.977C558.451 435.252 574.835 434.2 585.56 443.658V443.658C596.342 453.166 597.291 469.663 587.702 480.373V480.373C578.258 490.92 562.071 491.951 551.392 482.656V482.656Z" fill="white"/>
<path d="M440.321 441.666C440.321 439.107 442.395 437.033 444.954 437.033H454.836C457.395 437.033 459.469 439.107 459.469 441.666V441.666C459.469 444.224 457.395 446.298 454.836 446.298H444.954C442.395 446.298 440.321 444.224 440.321 441.666V441.666Z" fill="white"/>
<rect x="439.086" y="437.754" width="7.40414" height="5.97363" rx="2.98682" transform="rotate(-5.58678 439.086 437.754)" fill="white"/>
<rect x="443.41" y="437.033" width="0.617666" height="0.617666" fill="white"/>
<rect x="444.027" y="437.033" width="0.617666" height="0.617666" fill="white"/>
<rect x="401.061" y="456.049" width="52.3894" height="52.9971" rx="19" transform="rotate(30.3232 401.061 456.049)" fill="white"/>
<path d="M645.533 487.567C651.19 497.156 648.38 509.493 639.129 515.686L630.235 521.641C620.597 528.094 607.554 525.512 601.101 515.875L590.556 500.124C584.028 490.374 586.756 477.167 596.612 470.8L608.184 463.326C615.374 458.682 624.876 459.975 630.562 466.373V466.373L640.136 478.417L645.533 487.567Z" fill="white"/>
<path d="M397.515 467.234C396.524 465.251 396.935 462.855 398.531 461.317L403.539 456.49L404.805 455.255L409.438 451.24L414.379 447.534L419.011 444.754L419.205 444.638C422.154 442.869 425.303 441.456 428.585 440.431V440.431L432.174 439.164C433.25 438.784 434.423 438.777 435.504 439.145L440.998 441.013C443.737 441.944 443.77 445.806 441.048 446.785V446.785C440.823 446.866 440.608 446.972 440.409 447.103L406.451 469.302C404.637 470.487 402.344 470.664 400.37 469.771L399.959 469.585C398.899 469.105 398.035 468.275 397.515 467.234V467.234Z" fill="white"/>
<path d="M577.866 453.602C568.583 448.899 573.833 434.818 583.929 437.342V437.342L588.252 438.269L593.194 439.813L598.43 441.733C601.111 442.716 603.699 443.934 606.165 445.372V445.372L609.562 447.843L612.959 450.313L616.356 453.093L624.523 460.264C627.023 462.459 627.315 466.248 625.181 468.8V468.8C623.465 470.852 620.616 471.554 618.143 470.534L581.245 455.313L577.866 453.602Z" fill="white"/>
<path d="M563.854 437.033H581.351L582.672 437.342L583.002 442.592H563.854V437.033Z" fill="white"/>
<path d="M434.763 476.564H456.381V488.917L449.896 489.844L442.484 493.55L436.616 498.8L434.763 488.917V476.564Z" fill="white"/>
<path d="M594.12 476.564H565.707L563.546 488.917L574.231 489.844L583.929 493.859L587.635 496.329L590.105 498.491L591.685 498.8L594.12 488.917V476.564Z" fill="white"/>
<path d="M388.827 611.139C388.827 596.589 400.759 584.867 415.307 585.126L420.179 585.212C432.767 585.436 443.953 593.297 448.427 605.066L454.602 621.309C455.016 622.397 455.265 623.541 455.341 624.703V624.703C455.78 631.446 450.43 637.157 443.672 637.157H414.845C400.476 637.157 388.827 625.509 388.827 611.139V611.139Z" fill="#5D8BFF"/>
<path d="M632.188 611.139C632.188 596.589 620.256 584.867 605.708 585.126L600.836 585.212C588.247 585.436 577.062 593.297 572.588 605.066L566.413 621.309C565.999 622.397 565.75 623.541 565.674 624.703V624.703C565.234 631.446 570.585 637.157 577.342 637.157H606.17C620.539 637.157 632.188 625.509 632.188 611.139V611.139Z" fill="#5D8BFF"/>
</svg>
